<svg width="50" height="50" viewBox="0 0 50 50" fill="none" xmlns="http://www.w3.org/2000/svg">
<g id="Book open">
<path id="Icon" d="M25.0001 14.5833C25.0001 12.3732 24.1221 10.2536 22.5593 8.69078C20.9965 7.12797 18.8769 6.25 16.6667 6.25H4.16675V37.5H18.7501C20.4077 37.5 21.9974 38.1585 23.1695 39.3306C24.3416 40.5027 25.0001 42.0924 25.0001 43.75M25.0001 14.5833V43.75M25.0001 14.5833C25.0001 12.3732 25.8781 10.2536 27.4409 8.69078C29.0037 7.12797 31.1233 6.25 33.3334 6.25H45.8334V37.5H31.2501C29.5925 37.5 28.0028 38.1585 26.8307 39.3306C25.6586 40.5027 25.0001 42.0924 25.0001 43.75" stroke="#1E1E1E" stroke-width="4" stroke-linecap="round" stroke-linejoin="round"/>
</g>
</svg>
