<svg width="55" height="54" viewBox="0 0 55 54" fill="none" xmlns="http://www.w3.org/2000/svg">
<g id="Github">
<g id="Icon">
<path d="M20.4258 42.6781C9.17998 46.0475 9.17998 37.0626 4.68164 35.9395L20.4258 42.6781ZM36.17 49.4168V40.7239C36.2544 39.6528 36.1095 38.5761 35.7449 37.5653C35.3804 36.5545 34.8046 35.6327 34.0558 34.8613C41.1182 34.0751 48.5404 31.4021 48.5404 19.1378C48.5398 16.0017 47.3319 12.9858 45.1667 10.7145C46.192 7.97072 46.1195 4.93797 44.9642 2.24622C44.9642 2.24622 42.3102 1.46004 36.17 5.57062C31.0149 4.17532 25.5809 4.17532 20.4258 5.57062C14.2856 1.46004 11.6316 2.24622 11.6316 2.24622C10.4763 4.93797 10.4038 7.97072 11.4291 10.7145C9.24774 13.0027 8.03857 16.0458 8.05539 19.2052C8.05539 31.3797 15.4776 34.0527 22.54 34.9287C21.8001 35.6923 21.2294 36.603 20.8651 37.6015C20.5008 38.6 20.3512 39.6639 20.4258 40.7239V49.4168" fill="#55A6B1"/>
<path d="M20.4258 42.6781C9.17998 46.0475 9.17998 37.0626 4.68164 35.9395M36.17 49.4168V40.7239C36.2544 39.6528 36.1095 38.5761 35.7449 37.5653C35.3804 36.5544 34.8046 35.6327 34.0558 34.8613C41.1182 34.0751 48.5404 31.4021 48.5404 19.1378C48.5398 16.0017 47.3319 12.9858 45.1667 10.7145C46.192 7.97072 46.1195 4.93797 44.9642 2.24622C44.9642 2.24622 42.3102 1.46004 36.17 5.57062C31.0149 4.17532 25.5809 4.17532 20.4258 5.57062C14.2856 1.46004 11.6316 2.24622 11.6316 2.24622C10.4763 4.93797 10.4038 7.97072 11.4291 10.7145C9.24774 13.0027 8.03857 16.0458 8.05539 19.2052C8.05539 31.3797 15.4776 34.0527 22.54 34.9287C21.8001 35.6923 21.2294 36.603 20.8651 37.6015C20.5008 38.6 20.3512 39.6639 20.4258 40.7239V49.4168" stroke="#1E1E1E" stroke-width="4" stroke-linecap="round" stroke-linejoin="round"/>
</g>
</g>
</svg>
