<svg width="54" height="54" viewBox="0 0 54 54" fill="none" xmlns="http://www.w3.org/2000/svg">
<g id="Instagram">
<g id="Icon">
<path d="M38.258 4.49243H15.7663C9.55544 4.49243 4.52051 9.52076 4.52051 15.7235V38.1857C4.52051 44.3885 9.55544 49.4168 15.7663 49.4168H38.258C44.4689 49.4168 49.5039 44.3885 49.5039 38.1857V15.7235C49.5039 9.52076 44.4689 4.49243 38.258 4.49243Z" fill="#55A6B1"/>
<path d="M36.0089 25.5395C36.2864 27.4089 35.9667 29.3181 35.0951 30.9956C34.2236 32.6731 32.8446 34.0334 31.1543 34.883C29.464 35.7327 27.5485 36.0284 25.6802 35.7282C23.8119 35.4279 22.086 34.547 20.7479 33.2107C19.4098 31.8744 18.5277 30.1507 18.2271 28.2848C17.9265 26.419 18.2226 24.506 19.0734 22.8179C19.9241 21.1298 21.2862 19.7527 22.9659 18.8822C24.6456 18.0118 26.5573 17.6925 28.4292 17.9697C30.3385 18.2525 32.1062 19.1411 33.4711 20.5042C34.836 21.8673 35.7257 23.6326 36.0089 25.5395Z" fill="#55A6B1"/>
<path d="M39.3826 14.6004H39.4051M15.7663 4.49243H38.258C44.4689 4.49243 49.5039 9.52076 49.5039 15.7235V38.1857C49.5039 44.3885 44.4689 49.4168 38.258 49.4168H15.7663C9.55544 49.4168 4.52051 44.3885 4.52051 38.1857V15.7235C4.52051 9.52076 9.55544 4.49243 15.7663 4.49243ZM36.0089 25.5395C36.2864 27.4089 35.9667 29.3181 35.0951 30.9956C34.2236 32.6731 32.8446 34.0334 31.1543 34.883C29.464 35.7327 27.5485 36.0284 25.6802 35.7282C23.8119 35.4279 22.086 34.547 20.7479 33.2107C19.4098 31.8744 18.5277 30.1507 18.2271 28.2848C17.9265 26.419 18.2226 24.506 19.0734 22.8179C19.9241 21.1298 21.2862 19.7527 22.9659 18.8822C24.6456 18.0118 26.5573 17.6925 28.4292 17.9697C30.3385 18.2525 32.1062 19.1411 33.4711 20.5042C34.836 21.8673 35.7257 23.6326 36.0089 25.5395Z" stroke="#1E1E1E" stroke-width="4" stroke-linecap="round" stroke-linejoin="round"/>
</g>
</g>
</svg>
