<svg width="54" height="54" viewBox="0 0 54 54" fill="none" xmlns="http://www.w3.org/2000/svg">
<g id="location_on">
<path id="icon" d="M26.955 49.4176C26.4308 49.4176 25.9816 49.2678 25.6072 48.9683C25.2328 48.6688 24.952 48.2757 24.7649 47.789C24.0535 45.6925 23.155 43.7271 22.0694 41.8926C21.0211 40.0582 19.5423 37.9055 17.633 35.4346C15.7237 32.9638 14.17 30.6052 12.972 28.359C11.8115 26.1127 11.2312 23.3985 11.2312 20.2163C11.2312 15.8361 12.7474 12.1298 15.7799 9.09736C18.8497 6.02749 22.5748 4.49255 26.955 4.49255C31.3351 4.49255 35.0415 6.02749 38.0739 9.09736C41.1438 12.1298 42.6787 15.8361 42.6787 20.2163C42.6787 23.6231 42.0235 26.4684 40.7132 28.7521C39.4404 30.9983 37.9616 33.2258 36.2769 35.4346C34.2553 38.1301 32.7203 40.3764 31.6721 42.1734C30.6613 43.933 29.8189 45.8048 29.145 47.789C28.9579 48.3131 28.6584 48.725 28.2465 49.0245C27.8722 49.2865 27.4416 49.4176 26.955 49.4176ZM26.955 25.8319C28.5273 25.8319 29.8564 25.2891 30.942 24.2034C32.0277 23.1177 32.5706 21.7887 32.5706 20.2163C32.5706 18.6439 32.0277 17.3149 30.942 16.2292C29.8564 15.1435 28.5273 14.6007 26.955 14.6007C25.3826 14.6007 24.0535 15.1435 22.9679 16.2292C21.8822 17.3149 21.3393 18.6439 21.3393 20.2163C21.3393 21.7887 21.8822 23.1177 22.9679 24.2034C24.0535 25.2891 25.3826 25.8319 26.955 25.8319Z" fill="#55A6B1" stroke="#1E1E1E" stroke-width="4"/>
</g>
</svg>
