<svg width="55" height="54" viewBox="0 0 55 54" fill="none" xmlns="http://www.w3.org/2000/svg">
<g id="Twitter">
<path id="Icon" d="M51.8069 6.73865C49.653 8.25592 47.2683 9.41639 44.7445 10.1754C43.3899 8.61988 41.5897 7.5174 39.5872 7.01702C37.5848 6.51664 35.4768 6.6425 33.5483 7.3776C31.6199 8.11269 29.964 9.42154 28.8046 11.1271C27.6452 12.8327 27.0384 14.8527 27.066 16.914V19.1602C23.1134 19.2626 19.1968 18.3871 15.665 16.6118C12.1332 14.8364 9.0959 12.2164 6.82353 8.98487C6.82353 8.98487 -2.17314 29.2008 18.0694 38.1857C13.4373 41.3258 7.91923 42.9004 2.3252 42.6781C22.5677 53.9092 47.3085 42.6781 47.3085 16.8466C47.3065 16.221 47.2462 15.5968 47.1286 14.9823C49.4241 12.7214 51.044 9.86699 51.8069 6.73865Z" fill="#55A6B1" stroke="#1E1E1E" stroke-width="4" stroke-linecap="round" stroke-linejoin="round"/>
</g>
</svg>
